<svg version="1.0" xmlns="http://www.w3.org/2000/svg"
 width="24.000000pt" height="14.000000pt" viewBox="0 0 24.000000 14.000000"
 preserveAspectRatio="xMidYMid meet">
<metadata>
Created by potrace 1.16, written by Peter Selinger 2001-2019
</metadata>
<g transform="translate(0.000000,14.000000) scale(0.100000,-0.100000)"
fill="#000000" stroke="none">
<path d="M0 68 l0 -73 19 31 c10 17 20 49 23 72 3 38 1 42 -19 42 -22 0 -23
-4 -23 -72z"/>
<path d="M190 124 c0 -10 7 -14 22 -12 32 5 35 28 4 28 -17 0 -26 -5 -26 -16z"/>
<path d="M58 113 c0 -10 -2 -30 -3 -45 -1 -15 -8 -34 -15 -43 -11 -13 -5 -15
53 -15 63 0 67 1 91 33 31 41 32 47 6 47 -13 0 -20 7 -20 20 0 26 -17 26 -25
0 -4 -11 -10 -18 -15 -15 -5 3 -7 12 -3 20 3 9 -1 15 -11 15 -10 0 -16 -9 -17
-22 l0 -23 -9 23 c-11 26 -29 29 -32 5z"/>
<path d="M206 40 l-26 -40 30 0 c28 0 30 2 30 40 0 22 -2 40 -4 40 -2 0 -15
-18 -30 -40z"/>
</g>
</svg>
